<?xml version="1.0" encoding="UTF-8"?>
<svg version="1.1" xmlns="http://www.w3.org/2000/svg" width="2048" height="2048">
<path d="M0 0 C8.53421484 0.03773043 17.06830133 0.03257574 25.60257907 0.02704336 C41.33760132 0.0179616 57.07241392 0.04078703 72.80737529 0.08316521 C88.33929466 0.12488731 103.87112628 0.15158712 119.4031013 0.15913491 C120.86318267 0.15985667 120.86318267 0.15985667 122.35276064 0.16059302 C127.29807262 0.16296204 132.24338468 0.16507147 137.18869682 0.16708115 C172.02448719 0.1817017 206.8601641 0.22863027 241.69589076 0.29519944 C275.49373642 0.35970973 309.29155055 0.40906819 343.08944545 0.43875412 C345.2225725 0.44064861 347.35569955 0.44254355 349.48882661 0.44443892 C366.82726698 0.45976505 384.1657082 0.47406123 401.50414965 0.4881083 C481.37350948 0.55355498 561.24257241 0.69411682 641.11190638 0.82327561 C641.11190638 114.67327561 641.11190638 228.52327561 641.11190638 345.82327561 C697.54190638 345.82327561 753.97190638 345.82327561 812.11190638 345.82327561 C813.11190638 346.82327561 813.11190638 346.82327561 813.23610488 349.14680014 C813.23572516 350.18837301 813.23534544 351.22994587 813.23495421 352.30308155 C813.23694526 353.49987729 813.23893631 354.69667302 813.24098769 355.92973528 C813.23813411 357.27486924 813.2351885 358.620003 813.2321609 359.96513657 C813.23259648 361.38080635 813.23347114 362.79647604 813.23475007 364.21214531 C813.23699768 368.12063598 813.23297012 372.0290995 813.22797201 375.93758671 C813.22367149 380.14551575 813.22511364 384.35344313 813.22587428 388.56137375 C813.22639977 395.85798862 813.22325037 403.15459458 813.21763644 410.4512072 C813.20952481 421.00100954 813.20690657 431.55080755 813.20564845 442.10061267 C813.2034574 459.2151193 813.19679588 476.32962117 813.18734584 493.44412522 C813.17817309 510.07368227 813.17110305 526.70323803 813.16683802 543.33279709 C813.16657003 544.36753263 813.16630203 545.40226817 813.16602591 546.46835933 C813.16394661 554.56013252 813.16198964 562.65190574 813.16007135 570.74367897 C813.15063004 610.43688221 813.13051354 650.13007356 813.11190638 689.82327561 C868.55190638 689.82327561 923.99190638 689.82327561 981.11190638 689.82327561 C981.10030482 666.90632248 981.08870326 643.98936936 981.07675013 620.37796311 C981.07163989 605.8493172 981.06677832 591.32067184 981.06307826 576.79202561 C981.06112065 569.15660892 981.05910025 561.52119225 981.05697474 553.88577561 C981.05671099 552.92891995 981.05644725 551.97206429 981.0561755 550.98621301 C981.05183692 535.57784039 981.04395907 520.16947154 981.03475359 504.76110115 C981.02537211 488.92500137 981.01984129 473.08890355 981.01781789 457.2528011 C981.01645197 447.49646321 981.01215213 437.74013597 981.00398992 427.98380136 C980.99866692 421.27580073 980.9971146 414.56780552 980.99840501 407.85980293 C980.99903978 404.00096244 980.99813 400.14214043 980.99270091 396.2833033 C980.97474087 382.81220005 980.97492447 369.3494293 981.55650172 355.88800339 C981.61469503 354.5098207 981.61469503 354.5098207 981.67406396 353.10379593 C981.98344733 346.95173466 981.98344733 346.95173466 983.11190638 345.82327561 C985.31416092 345.72627501 987.51959303 345.70140852 989.72398219 345.70302109 C990.77269501 345.70173945 990.77269501 345.70173945 991.84259394 345.70043192 C994.20265389 345.6987751 996.56264392 345.70430177 998.9226974 345.70975022 C1000.60755253 345.71003207 1002.29240778 345.70987439 1003.97726283 345.70930771 C1008.56591091 345.70901967 1013.15453309 345.71491749 1017.74317512 345.72188167 C1022.53315271 345.72811408 1027.32313082 345.72871892 1032.11311183 345.72990708 C1041.1901967 345.73302073 1050.26726959 345.74123457 1059.34434918 345.75125657 C1069.6754922 345.76241666 1080.00663577 345.76792789 1090.33778331 345.772952 C1111.59583103 345.78341716 1132.85386796 345.80101725 1154.11190638 345.82327561 C1154.11152666 345.24300747 1154.11114694 344.66273934 1154.11075572 344.06488733 C1154.08818131 309.36500911 1154.07112231 274.6651324 1154.06084105 239.96524834 C1154.05959094 235.76151133 1154.05829656 231.55777432 1154.05697474 227.35403733 C1154.05671243 226.51745074 1154.05645012 225.68086416 1154.05617986 224.81892647 C1154.05187572 211.42524931 1154.04401846 198.03157663 1154.03475359 184.63790209 C1154.02526843 170.80626085 1154.01982007 156.97462188 1154.01781789 143.14297752 C1154.0164728 134.66733382 1154.01229298 126.19170276 1154.00398992 117.71606297 C1153.99853703 111.83569663 1153.99714199 105.95533642 1153.99840501 100.07496775 C1153.99902091 96.72583081 1153.99774782 93.37673188 1153.99270091 90.02759652 C1153.95024454 60.28895725 1154.57393063 30.55585908 1155.11190638 0.82327561 C1221.16675168 0.6858932 1287.22161399 0.55873494 1353.27656398 0.48453049 C1354.25719686 0.48342603 1355.23782973 0.48232158 1356.24817876 0.48118365 C1377.56981232 0.45722969 1398.8914474 0.43506977 1420.21308474 0.41475297 C1430.67211611 0.40477595 1441.13114708 0.39440329 1451.59017787 0.38382248 C1452.63087085 0.38277641 1453.67156383 0.38173034 1454.74379296 0.38065257 C1488.3591817 0.34667852 1521.97446149 0.28667641 1555.58978448 0.21289784 C1590.18937857 0.13709853 1624.78891259 0.08811416 1659.3885883 0.07195569 C1664.29708276 0.0696511 1669.20557702 0.06704602 1674.11407122 0.06425766 C1675.07995145 0.06371828 1676.04583167 0.0631789 1677.04098099 0.06262317 C1692.46915619 0.05323983 1707.89714335 0.01632869 1723.32524245 -0.03138066 C1738.90831736 -0.07896344 1754.49120954 -0.09634914 1770.07435427 -0.08473541 C1778.48825029 -0.07925787 1786.90164771 -0.08591763 1795.31544146 -0.13036819 C1882.91396538 -0.57603806 1882.91396538 -0.57603806 1914.11190638 9.82327561 C1914.27789821 100.78203312 1914.30109086 191.7370738 1913.47324977 282.69288926 C1913.4649005 283.61186538 1913.45655124 284.53084151 1913.44794897 285.47766539 C1913.2376077 308.58285217 1913.01197394 331.6878817 1912.77999935 354.79286036 C1912.62290165 370.44074378 1912.4703757 386.08866597 1912.32137523 401.73662857 C1912.30597245 403.35385285 1912.30597245 403.35385285 1912.29025852 405.00374832 C1912.23785247 410.50797768 1912.18550813 416.01220762 1912.13318495 421.51643776 C1911.76070036 460.68713677 1911.37988745 499.85775085 1910.99414096 539.02832131 C1910.61330008 577.70301249 1910.23617829 616.37773716 1909.86375079 655.0525103 C1909.85204582 656.26782923 1909.84034084 657.48314816 1909.82828117 658.73529493 C1909.72131471 669.84162398 1909.61438856 680.94795341 1909.5075121 692.05428333 C1909.24211876 719.63301472 1908.9761526 747.21174056 1908.70978293 774.79046254 C1908.69767016 776.04460542 1908.68555739 777.2987483 1908.67307757 778.59089552 C1908.08787881 839.17629444 1907.4960184 899.76162803 1906.90365443 960.34695725 C1906.08098405 1044.48818567 1905.26293964 1128.62945724 1904.45052943 1212.77078537 C1904.42515999 1215.39816778 1904.39979041 1218.02555019 1904.37442068 1220.65293259 C1904.17229349 1241.58616655 1903.97018686 1262.5194007 1903.7681181 1283.45263522 C1902.89451308 1373.95303391 1902.01768877 1464.45340145 1901.13979857 1554.95375866 C1901.02219996 1567.07686217 1900.90461729 1579.19996583 1900.78708172 1591.32306994 C1900.2466957 1647.06033211 1899.70538208 1702.79758498 1899.16052131 1758.5348036 C1899.11829161 1762.85501589 1899.07606434 1767.1752282 1899.0338386 1771.49544052 C1899.01829628 1773.08549758 1899.01829628 1773.08549758 1899.00243997 1774.70767699 C1898.83992573 1791.3358349 1898.67834226 1807.96400171 1898.51715715 1824.59217255 C1898.35779598 1841.02966696 1898.19734259 1857.46715045 1898.03580584 1873.90462363 C1897.94982495 1882.65631026 1897.86426876 1891.40800044 1897.78002159 1900.15970394 C1897.75615265 1902.63158478 1897.73226971 1905.10346547 1897.70838285 1907.57534613 C1897.69413116 1909.05447806 1897.679945 1910.53361062 1897.66584766 1912.01274402 C1897.26610641 1953.95175929 1896.68639205 1995.88582212 1896.11190638 2037.82327561 C1653.89190638 2037.82327561 1411.67190638 2037.82327561 1162.11190638 2037.82327561 C1148.23803737 1859.77528999 1148.23803737 1859.77528999 1149.2296432 1780.48099045 C1149.3462979 1770.55159828 1149.37900679 1760.62166579 1149.42279694 1750.69174163 C1149.49714181 1734.52242763 1149.59409573 1718.35300062 1149.77927813 1702.18453888 C1149.79812606 1700.50224278 1149.81547834 1698.81992914 1149.83120189 1697.13760094 C1149.85317368 1694.84482293 1149.88114312 1692.55219756 1149.91090236 1690.25950913 C1149.92556639 1688.98373662 1149.94023042 1687.70796412 1149.95533881 1686.39353184 C1150.11238732 1682.81230858 1150.54383089 1679.36063934 1151.11190638 1675.82327561 C1150.38563096 1675.82365533 1149.65935553 1675.82403505 1148.91107175 1675.82442628 C1105.11266467 1675.8471874 1061.31425827 1675.86414922 1017.51584638 1675.87434094 C1012.16586768 1675.8755905 1006.81588898 1675.87688493 1001.46591029 1675.87820725 C1000.40156289 1675.87846956 999.3372155 1675.87873187 998.24061515 1675.87900213 C983.44327436 1675.88274117 968.64593635 1675.88886788 953.84859735 1675.89700994 C928.26188825 1675.911086 902.67518208 1675.920221 877.08846888 1675.92093186 C875.58308006 1675.92098972 875.58308006 1675.92098972 874.04727933 1675.92104874 C797.73192896 1675.92301048 721.42373258 1675.54991304 645.11190638 1674.82327561 C645.149239 1676.2042274 645.149239 1676.2042274 645.18732581 1677.61307721 C645.99427903 1707.82524411 646.50461325 1738.03934362 646.79940638 1768.26077561 C646.81679693 1769.99959897 646.81679693 1769.99959897 646.83453879 1771.77355008 C647.48686447 1839.02246518 644.59832036 1903.85279129 631.73690638 1969.94827561 C631.57754462 1970.77100511 631.41818285 1971.59373462 631.25399194 1972.44139532 C628.00350667 1989.20731838 624.58224972 2005.93477454 620.81747279 2022.59329514 C620.5722019 2023.68641227 620.32693101 2024.7795294 620.07422767 2025.9057713 C619.84428768 2026.90046209 619.6143477 2027.89515288 619.37743983 2028.91998581 C619.08154428 2030.20553203 619.08154428 2030.20553203 618.77967105 2031.51704888 C618.11792481 2033.80249006 617.20035885 2035.71528156 616.11190638 2037.82327561 C497.79951449 2037.87563871 379.48709212 2037.91031909 5.68168334 2037.42562443 C-0.90478997 2037.4014194 -7.49126471 2037.37790462 -14.07774511 2037.35570435 C-15.1640126 2037.35204098 -15.1640126 2037.35204098 -16.27222489 2037.34830361 C-16.99411422 2037.34586958 -17.71600355 2037.34343555 -18.45976832 2037.34092776 C-33.34645959 2037.29072011 -48.23310962 2037.23454241 -63.11974874 2037.1703978 C-67.9190727 2037.14976564 -72.71839758 2037.1310832 -77.5177361 2037.11418442 C-82.91799925 2037.09493991 -88.31821826 2037.07093974 -93.71844211 2037.0427808 C-95.65908329 2037.03342097 -97.59973342 2037.02574447 -99.54038825 2037.01985757 C-102.14416139 2037.01166677 -104.74782868 2036.99744073 -107.35156407 2036.98149399 C-108.11212232 2036.98051586 -108.87268056 2036.97953774 -109.65628603 2036.97852997 C-114.77386542 2036.93750381 -114.77386542 2036.93750381 -115.88809362 2035.82327561 C-116.00081324 2034.24591407 -116.04354418 2032.66352237 -116.05940964 2031.08221803 C-116.07226223 2030.0404353 -116.08511482 2028.99865256 -116.09835688 2027.92530065 C-116.10766764 2026.7574352 -116.11697841 2025.58956975 -116.12657132 2024.38631443 C-116.14037935 2023.14395498 -116.15418738 2021.90159553 -116.16841384 2020.62158883 C-116.20747042 2017.09210873 -116.24019016 2013.56259184 -116.27205757 2010.03304052 C-116.30865195 2006.10257429 -116.35103187 2002.17216949 -116.39261904 1998.2417535 C-116.46718149 1991.11531537 -116.53784633 1983.98884588 -116.60624876 1976.86234609 C-116.71284135 1965.75913335 -116.82524362 1954.65598403 -116.93848371 1943.55283736 C-117.14758442 1923.02716341 -117.35108385 1902.50143619 -117.55236211 1881.97568421 C-117.78100269 1858.66053269 -118.01188504 1835.34540457 -118.24479355 1812.03029529 C-118.28672954 1807.83222529 -118.32865091 1803.63415514 -118.37057321 1799.436085 C-118.37899066 1798.59316842 -118.38740812 1797.75025183 -118.39608064 1796.88179232 C-118.42182132 1794.30410581 -118.44756119 1791.72641928 -118.47330096 1789.14873276 C-118.48187299 1788.29033442 -118.49044502 1787.43193608 -118.49927682 1786.54752567 C-119.49546585 1686.78562753 -120.47565323 1587.02357225 -124.24057323 1201.71705242 C-124.44018306 1181.2216396 -124.63984952 1160.72622734 -124.83954269 1140.23081534 C-124.8749207 1136.59976764 -124.91029676 1132.96871992 -124.94567278 1129.33767221 C-125.69125473 1052.81264098 -126.4427993 976.28766985 -127.1978463 899.76273147 C-127.75197799 843.60055513 -128.30515888 787.43837017 -128.85208097 731.27612309 C-128.86340167 730.11366826 -128.87472237 728.95121342 -128.88638612 727.75353269 C-129.13523786 702.1986213 -129.38359738 676.64370516 -129.63149724 651.08878452 C-129.73129976 640.80138592 -129.83116864 630.51398796 -129.93105855 620.2265902 C-129.94198306 619.10132465 -129.95290757 617.97605911 -129.96416313 616.81669461 C-130.31102363 581.09197942 -130.66333452 545.36732076 -131.01874214 509.64268966 C-131.37774146 473.55413745 -131.7308318 437.46553204 -132.07650396 401.3768496 C-132.12503452 396.3103041 -132.17362714 391.2437592 -132.22225728 386.17721466 C-132.23178055 385.18478953 -132.24130382 384.19236439 -132.25111568 383.16986576 C-132.3888247 368.83454386 -132.53134679 354.49927617 -132.67700353 340.16403298 C-132.89270884 318.90777316 -133.10018467 297.65144684 -133.29412999 276.39497666 C-133.30186245 275.5491149 -133.30959492 274.70325315 -133.31756169 273.83175922 C-134.11956575 185.83030934 -134.03627489 97.82748601 -133.88809362 9.82327561 C-132.00389561 9.50736634 -130.11960766 9.19199348 -128.23528321 8.87683924 C-127.18598028 8.70115698 -126.13667735 8.52547473 -125.05557736 8.34446878 C-83.2554243 1.46646845 -42.2531531 -0.19453821 0 0 Z " fill="#E486FE" transform="translate(133.8880936158821,4.176724392455071)"/>
<path d="M0 0 C8.53421484 0.03773043 17.06830133 0.03257574 25.60257907 0.02704336 C41.33760132 0.0179616 57.07241392 0.04078703 72.80737529 0.08316521 C88.33929466 0.12488731 103.87112628 0.15158712 119.4031013 0.15913491 C120.86318267 0.15985667 120.86318267 0.15985667 122.35276064 0.16059302 C127.29807262 0.16296204 132.24338468 0.16507147 137.18869682 0.16708115 C172.02448719 0.1817017 206.8601641 0.22863027 241.69589076 0.29519944 C275.49373642 0.35970973 309.29155055 0.40906819 343.08944545 0.43875412 C345.2225725 0.44064861 347.35569955 0.44254355 349.48882661 0.44443892 C366.82726698 0.45976505 384.1657082 0.47406123 401.50414965 0.4881083 C481.37350948 0.55355498 561.24257241 0.69411682 641.11190638 0.82327561 C641.11190638 114.67327561 641.11190638 228.52327561 641.11190638 345.82327561 C697.54190638 345.82327561 753.97190638 345.82327561 812.11190638 345.82327561 C813.11190638 346.82327561 813.11190638 346.82327561 813.23610488 349.14680014 C813.23572516 350.18837301 813.23534544 351.22994587 813.23495421 352.30308155 C813.23694526 353.49987729 813.23893631 354.69667302 813.24098769 355.92973528 C813.23813411 357.27486924 813.2351885 358.620003 813.2321609 359.96513657 C813.23259648 361.38080635 813.23347114 362.79647604 813.23475007 364.21214531 C813.23699768 368.12063598 813.23297012 372.0290995 813.22797201 375.93758671 C813.22367149 380.14551575 813.22511364 384.35344313 813.22587428 388.56137375 C813.22639977 395.85798862 813.22325037 403.15459458 813.21763644 410.4512072 C813.20952481 421.00100954 813.20690657 431.55080755 813.20564845 442.10061267 C813.2034574 459.2151193 813.19679588 476.32962117 813.18734584 493.44412522 C813.17817309 510.07368227 813.17110305 526.70323803 813.16683802 543.33279709 C813.16657003 544.36753263 813.16630203 545.40226817 813.16602591 546.46835933 C813.16394661 554.56013252 813.16198964 562.65190574 813.16007135 570.74367897 C813.15063004 610.43688221 813.13051354 650.13007356 813.11190638 689.82327561 C868.55190638 689.82327561 923.99190638 689.82327561 981.11190638 689.82327561 C981.10030482 666.90632248 981.08870326 643.98936936 981.07675013 620.37796311 C981.07163989 605.8493172 981.06677832 591.32067184 981.06307826 576.79202561 C981.06112065 569.15660892 981.05910025 561.52119225 981.05697474 553.88577561 C981.05671099 552.92891995 981.05644725 551.97206429 981.0561755 550.98621301 C981.05183692 535.57784039 981.04395907 520.16947154 981.03475359 504.76110115 C981.02537211 488.92500137 981.01984129 473.08890355 981.01781789 457.2528011 C981.01645197 447.49646321 981.01215213 437.74013597 981.00398992 427.98380136 C980.99866692 421.27580073 980.9971146 414.56780552 980.99840501 407.85980293 C980.99903978 404.00096244 980.99813 400.14214043 980.99270091 396.2833033 C980.97474087 382.81220005 980.97492447 369.3494293 981.55650172 355.88800339 C981.61469503 354.5098207 981.61469503 354.5098207 981.67406396 353.10379593 C981.98344733 346.95173466 981.98344733 346.95173466 983.11190638 345.82327561 C985.31416092 345.72627501 987.51959303 345.70140852 989.72398219 345.70302109 C990.77269501 345.70173945 990.77269501 345.70173945 991.84259394 345.70043192 C994.20265389 345.6987751 996.56264392 345.70430177 998.9226974 345.70975022 C1000.60755253 345.71003207 1002.29240778 345.70987439 1003.97726283 345.70930771 C1008.56591091 345.70901967 1013.15453309 345.71491749 1017.74317512 345.72188167 C1022.53315271 345.72811408 1027.32313082 345.72871892 1032.11311183 345.72990708 C1041.1901967 345.73302073 1050.26726959 345.74123457 1059.34434918 345.75125657 C1069.6754922 345.76241666 1080.00663577 345.76792789 1090.33778331 345.772952 C1111.59583103 345.78341716 1132.85386796 345.80101725 1154.11190638 345.82327561 C1154.11152666 345.24300747 1154.11114694 344.66273934 1154.11075572 344.06488733 C1154.08818131 309.36500911 1154.07112231 274.6651324 1154.06084105 239.96524834 C1154.05959094 235.76151133 1154.05829656 231.55777432 1154.05697474 227.35403733 C1154.05671243 226.51745074 1154.05645012 225.68086416 1154.05617986 224.81892647 C1154.05187572 211.42524931 1154.04401846 198.03157663 1154.03475359 184.63790209 C1154.02526843 170.80626085 1154.01982007 156.97462188 1154.01781789 143.14297752 C1154.0164728 134.66733382 1154.01229298 126.19170276 1154.00398992 117.71606297 C1153.99853703 111.83569663 1153.99714199 105.95533642 1153.99840501 100.07496775 C1153.99902091 96.72583081 1153.99774782 93.37673188 1153.99270091 90.02759652 C1153.95024454 60.28895725 1154.57393063 30.55585908 1155.11190638 0.82327561 C1221.16675168 0.6858932 1287.22161399 0.55873494 1353.27656398 0.48453049 C1354.25719686 0.48342603 1355.23782973 0.48232158 1356.24817876 0.48118365 C1377.56981232 0.45722969 1398.8914474 0.43506977 1420.21308474 0.41475297 C1430.67211611 0.40477595 1441.13114708 0.39440329 1451.59017787 0.38382248 C1452.63087085 0.38277641 1453.67156383 0.38173034 1454.74379296 0.38065257 C1488.3591817 0.34667852 1521.97446149 0.28667641 1555.58978448 0.21289784 C1590.18937857 0.13709853 1624.78891259 0.08811416 1659.3885883 0.07195569 C1664.29708276 0.0696511 1669.20557702 0.06704602 1674.11407122 0.06425766 C1675.07995145 0.06371828 1676.04583167 0.0631789 1677.04098099 0.06262317 C1692.46915619 0.05323983 1707.89714335 0.01632869 1723.32524245 -0.03138066 C1738.90831736 -0.07896344 1754.49120954 -0.09634914 1770.07435427 -0.08473541 C1778.48825029 -0.07925787 1786.90164771 -0.08591763 1795.31544146 -0.13036819 C1882.91396538 -0.57603806 1882.91396538 -0.57603806 1914.11190638 9.82327561 C1914.27789821 100.78203312 1914.30109086 191.7370738 1913.47324977 282.69288926 C1913.4649005 283.61186538 1913.45655124 284.53084151 1913.44794897 285.47766539 C1913.2376077 308.58285217 1913.01197394 331.6878817 1912.77999935 354.79286036 C1912.62290165 370.44074378 1912.4703757 386.08866597 1912.32137523 401.73662857 C1912.30597245 403.35385285 1912.30597245 403.35385285 1912.29025852 405.00374832 C1912.23785247 410.50797768 1912.18550813 416.01220762 1912.13318495 421.51643776 C1911.76070036 460.68713677 1911.37988745 499.85775085 1910.99414096 539.02832131 C1910.61330008 577.70301249 1910.23617829 616.37773716 1909.86375079 655.0525103 C1909.85204582 656.26782923 1909.84034084 657.48314816 1909.82828117 658.73529493 C1909.72131471 669.84162398 1909.61438856 680.94795341 1909.5075121 692.05428333 C1909.24211876 719.63301472 1908.9761526 747.21174056 1908.70978293 774.79046254 C1908.69767016 776.04460542 1908.68555739 777.2987483 1908.67307757 778.59089552 C1908.08787881 839.17629444 1907.4960184 899.76162803 1906.90365443 960.34695725 C1906.08098405 1044.48818567 1905.26293964 1128.62945724 1904.45052943 1212.77078537 C1904.42515999 1215.39816778 1904.39979041 1218.02555019 1904.37442068 1220.65293259 C1904.17229349 1241.58616655 1903.97018686 1262.5194007 1903.7681181 1283.45263522 C1902.89451308 1373.95303391 1902.01768877 1464.45340145 1901.13979857 1554.95375866 C1901.02219996 1567.07686217 1900.90461729 1579.19996583 1900.78708172 1591.32306994 C1900.2466957 1647.06033211 1899.70538208 1702.79758498 1899.16052131 1758.5348036 C1899.11829161 1762.85501589 1899.07606434 1767.1752282 1899.0338386 1771.49544052 C1899.01829628 1773.08549758 1899.01829628 1773.08549758 1899.00243997 1774.70767699 C1898.83992573 1791.3358349 1898.67834226 1807.96400171 1898.51715715 1824.59217255 C1898.35779598 1841.02966696 1898.19734259 1857.46715045 1898.03580584 1873.90462363 C1897.94982495 1882.65631026 1897.86426876 1891.40800044 1897.78002159 1900.15970394 C1897.75615265 1902.63158478 1897.73226971 1905.10346547 1897.70838285 1907.57534613 C1897.69413116 1909.05447806 1897.679945 1910.53361062 1897.66584766 1912.01274402 C1897.26610641 1953.95175929 1896.68639205 1995.88582212 1896.11190638 2037.82327561 C1653.89190638 2037.82327561 1411.67190638 2037.82327561 1162.11190638 2037.82327561 C1148.23803737 1859.77528999 1148.23803737 1859.77528999 1149.2296432 1780.48099045 C1149.3462979 1770.55159828 1149.37900679 1760.62166579 1149.42279694 1750.69174163 C1149.49714181 1734.52242763 1149.59409573 1718.35300062 1149.77927813 1702.18453888 C1149.79812606 1700.50224278 1149.81547834 1698.81992914 1149.83120189 1697.13760094 C1149.85317368 1694.84482293 1149.88114312 1692.55219756 1149.91090236 1690.25950913 C1149.92556639 1688.98373662 1149.94023042 1687.70796412 1149.95533881 1686.39353184 C1150.11238732 1682.81230858 1150.54383089 1679.36063934 1151.11190638 1675.82327561 C1150.38563096 1675.82365533 1149.65935553 1675.82403505 1148.91107175 1675.82442628 C1105.11266467 1675.8471874 1061.31425827 1675.86414922 1017.51584638 1675.87434094 C1012.16586768 1675.8755905 1006.81588898 1675.87688493 1001.46591029 1675.87820725 C1000.40156289 1675.87846956 999.3372155 1675.87873187 998.24061515 1675.87900213 C983.44327436 1675.88274117 968.64593635 1675.88886788 953.84859735 1675.89700994 C928.26188825 1675.911086 902.67518208 1675.920221 877.08846888 1675.92093186 C875.58308006 1675.92098972 875.58308006 1675.92098972 874.04727933 1675.92104874 C797.73192896 1675.92301048 721.42373258 1675.54991304 645.11190638 1674.82327561 C645.149239 1676.2042274 645.149239 1676.2042274 645.18732581 1677.61307721 C645.99427903 1707.82524411 646.50461325 1738.03934362 646.79940638 1768.26077561 C646.81679693 1769.99959897 646.81679693 1769.99959897 646.83453879 1771.77355008 C647.48686447 1839.02246518 644.59832036 1903.85279129 631.73690638 1969.94827561 C631.57754462 1970.77100511 631.41818285 1971.59373462 631.25399194 1972.44139532 C628.00350667 1989.20731838 624.58224972 2005.93477454 620.81747279 2022.59329514 C620.5722019 2023.68641227 620.32693101 2024.7795294 620.07422767 2025.9057713 C619.84428768 2026.90046209 619.6143477 2027.89515288 619.37743983 2028.91998581 C619.08154428 2030.20553203 619.08154428 2030.20553203 618.77967105 2031.51704888 C618.11792481 2033.80249006 617.20035885 2035.71528156 616.11190638 2037.82327561 C497.79951449 2037.87563871 379.48709212 2037.91031909 5.68168334 2037.42562443 C-0.90478997 2037.4014194 -7.49126471 2037.37790462 -14.07774511 2037.35570435 C-15.1640126 2037.35204098 -15.1640126 2037.35204098 -16.27222489 2037.34830361 C-16.99411422 2037.34586958 -17.71600355 2037.34343555 -18.45976832 2037.34092776 C-33.34645959 2037.29072011 -48.23310962 2037.23454241 -63.11974874 2037.1703978 C-67.9190727 2037.14976564 -72.71839758 2037.1310832 -77.5177361 2037.11418442 C-82.91799925 2037.09493991 -88.31821826 2037.07093974 -93.71844211 2037.0427808 C-95.65908329 2037.03342097 -97.59973342 2037.02574447 -99.54038825 2037.01985757 C-102.14416139 2037.01166677 -104.74782868 2036.99744073 -107.35156407 2036.98149399 C-108.11212232 2036.98051586 -108.87268056 2036.97953774 -109.65628603 2036.97852997 C-114.77386542 2036.93750381 -114.77386542 2036.93750381 -115.88809362 2035.82327561 C-116.00081324 2034.24591407 -116.04354418 2032.66352237 -116.05940964 2031.08221803 C-116.07226223 2030.0404353 -116.08511482 2028.99865256 -116.09835688 2027.92530065 C-116.10766764 2026.7574352 -116.11697841 2025.58956975 -116.12657132 2024.38631443 C-116.14037935 2023.14395498 -116.15418738 2021.90159553 -116.16841384 2020.62158883 C-116.20747042 2017.09210873 -116.24019016 2013.56259184 -116.27205757 2010.03304052 C-116.30865195 2006.10257429 -116.35103187 2002.17216949 -116.39261904 1998.2417535 C-116.46718149 1991.11531537 -116.53784633 1983.98884588 -116.60624876 1976.86234609 C-116.71284135 1965.75913335 -116.82524362 1954.65598403 -116.93848371 1943.55283736 C-117.14758442 1923.02716341 -117.35108385 1902.50143619 -117.55236211 1881.97568421 C-117.78100269 1858.66053269 -118.01188504 1835.34540457 -118.24479355 1812.03029529 C-118.28672954 1807.83222529 -118.32865091 1803.63415514 -118.37057321 1799.436085 C-118.37899066 1798.59316842 -118.38740812 1797.75025183 -118.39608064 1796.88179232 C-118.42182132 1794.30410581 -118.44756119 1791.72641928 -118.47330096 1789.14873276 C-118.48187299 1788.29033442 -118.49044502 1787.43193608 -118.49927682 1786.54752567 C-119.49546585 1686.78562753 -120.47565323 1587.02357225 -124.24057323 1201.71705242 C-124.44018306 1181.2216396 -124.63984952 1160.72622734 -124.83954269 1140.23081534 C-124.8749207 1136.59976764 -124.91029676 1132.96871992 -124.94567278 1129.33767221 C-125.69125473 1052.81264098 -126.4427993 976.28766985 -127.1978463 899.76273147 C-127.75197799 843.60055513 -128.30515888 787.43837017 -128.85208097 731.27612309 C-128.86340167 730.11366826 -128.87472237 728.95121342 -128.88638612 727.75353269 C-129.13523786 702.1986213 -129.38359738 676.64370516 -129.63149724 651.08878452 C-129.73129976 640.80138592 -129.83116864 630.51398796 -129.93105855 620.2265902 C-129.94198306 619.10132465 -129.95290757 617.97605911 -129.96416313 616.81669461 C-130.31102363 581.09197942 -130.66333452 545.36732076 -131.01874214 509.64268966 C-131.37774146 473.55413745 -131.7308318 437.46553204 -132.07650396 401.3768496 C-132.12503452 396.3103041 -132.17362714 391.2437592 -132.22225728 386.17721466 C-132.23178055 385.18478953 -132.24130382 384.19236439 -132.25111568 383.16986576 C-132.3888247 368.83454386 -132.53134679 354.49927617 -132.67700353 340.16403298 C-132.89270884 318.90777316 -133.10018467 297.65144684 -133.29412999 276.39497666 C-133.30186245 275.5491149 -133.30959492 274.70325315 -133.31756169 273.83175922 C-134.11956575 185.83030934 -134.03627489 97.82748601 -133.88809362 9.82327561 C-132.00389561 9.50736634 -130.11960766 9.19199348 -128.23528321 8.87683924 C-127.18598028 8.70115698 -126.13667735 8.52547473 -125.05557736 8.34446878 C-83.2554243 1.46646845 -42.2531531 -0.19453821 0 0 Z M-33.88809362 102.82327561 C-33.90272452 148.24873465 -33.90272452 148.24873465 -33.6381338 193.67073461 C-33.58782704 199.19195007 -33.54098855 204.71319286 -33.49425467 210.23443953 C-33.42523532 218.34487674 -33.35451191 226.45529755 -33.28254857 234.56570916 C-33.17552612 246.62791909 -33.07131492 258.69015228 -32.96758477 270.75239092 C-32.78204151 292.31759525 -32.59380026 313.88277536 -32.40434891 335.44794568 C-32.23853638 354.32293227 -32.07362301 373.19792645 -31.90957608 392.07292847 C-31.89863043 393.33215568 -31.88768478 394.59138288 -31.87640745 395.88876849 C-31.83195927 401.00229612 -31.7875142 406.11582378 -31.74307443 411.22935149 C-31.43354725 446.84393464 -31.1231247 482.4585099 -30.81069436 518.07306771 C-30.80482724 518.74188714 -30.79896011 519.41070657 -30.79291519 520.09979326 C-30.69768062 530.95578446 -30.60241082 541.81177536 -30.50713792 552.66776623 C-30.12950046 595.69842293 -29.75436667 638.72910072 -29.38150182 681.75979905 C-29.28749591 692.6083983 -29.19348453 703.4569975 -29.09943643 714.30559639 C-29.09074603 715.30806688 -29.09074603 715.30806688 -29.08188006 716.3307893 C-28.76786681 752.5518352 -28.4515254 788.77286077 -28.13444575 824.99387996 C-28.0897694 830.09791701 -28.04509721 835.2019541 -28.00042691 840.30599121 C-27.98942913 841.56243957 -27.97843135 842.81888793 -27.96710031 844.11341048 C-27.80216404 862.9599616 -27.63846381 881.80652319 -27.47539106 900.65309052 C-27.28966536 922.11695187 -27.1021081 943.5807964 -26.91223666 965.04462149 C-26.81565018 975.96824189 -26.7198173 986.89186745 -26.62630239 997.81551461 C-26.28466768 1037.67882557 -25.94157557 1077.53897555 -25.15522943 1117.3964433 C-24.80665458 1135.08266978 -24.68878839 1152.76822117 -24.61770215 1170.4574347 C-24.5986102 1174.94682905 -24.57457849 1179.43619758 -24.55105748 1183.92557053 C-24.48769333 1196.17091557 -24.4312556 1208.41629006 -24.37507024 1220.66166977 C-24.3232327 1231.9427204 -24.26964894 1243.22375705 -24.21054473 1254.50477223 C-24.18768916 1258.89823614 -24.1661101 1263.29169543 -24.14845433 1267.68518357 C-24.06426809 1288.53566248 -23.80795672 1309.37739202 -23.41543737 1330.22439865 C-23.00360747 1352.1967407 -22.71667052 1374.16776119 -22.51504674 1396.14285569 C-22.50794887 1396.91592985 -22.500851 1397.689004 -22.49353805 1398.48550465 C-22.40409747 1408.27059637 -22.31908032 1418.05572463 -22.23568722 1427.84086955 C-22.18325574 1433.98874232 -22.12975269 1440.13660505 -22.07560887 1446.28446297 C-22.067707 1447.18180397 -22.05980513 1448.07914497 -22.05166381 1449.00367812 C-22.0355622 1450.83173291 -22.01945846 1452.65978769 -22.00335261 1454.48784244 C-21.85356509 1471.50215161 -21.70680916 1488.51648583 -21.56116864 1505.53083092 C-21.43990629 1519.68928745 -21.31612441 1533.84771989 -21.19033971 1548.00613694 C-20.99268177 1570.26416648 -20.7977841 1592.52221861 -20.60684362 1614.78030686 C-20.59894575 1615.70028326 -20.59104788 1616.62025967 -20.58291068 1617.56811414 C-20.19738214 1662.5140205 -19.85648003 1707.45989133 -19.60684362 1752.4067717 C-19.59583334 1754.37737499 -19.58481937 1756.34797826 -19.57380166 1758.3185815 C-19.47397802 1776.2132747 -19.37672779 1794.10797579 -19.29244011 1812.00274954 C-19.24837556 1821.3448768 -19.20172674 1830.68698851 -19.15176549 1840.02908615 C-19.14749213 1840.83172235 -19.14321876 1841.63435855 -19.1388159 1842.46131706 C-18.9762739 1872.5877345 -18.53992491 1902.70318892 -17.88809362 1932.82327561 C11.4451387 1933.00853717 40.77848069 1933.17184335 70.11190638 1933.32327561 C71.26028782 1933.32922415 72.40866926 1933.33517269 73.59185014 1933.34130148 C164.3156038 1933.80974882 255.03817055 1933.90469761 373.8582643 1933.88643412 C376.68316048 1933.88577356 379.50805665 1933.88513084 382.33295283 1933.88449005 C415.77119951 1933.87682142 449.20944503 1933.86602977 482.64768824 1933.84880356 C483.36013001 1933.84843664 484.07257177 1933.84806973 484.80660268 1933.84769169 C498.90837104 1933.84036076 513.01013869 1933.8317642 527.11190638 1933.82327561 C527.13497755 1896.68948551 527.08655661 1859.55669523 526.95747945 1822.42309503 C526.93667136 1816.38059166 526.91680634 1810.3380852 526.8968726 1804.2955789 C526.84370324 1788.19573727 526.78857296 1772.09590255 526.73314388 1755.99606857 C526.70673623 1748.32215937 526.68056857 1740.64824936 526.65441968 1732.97433927 C526.56422155 1706.50691854 526.47356286 1680.03949944 526.3814157 1653.57208542 C526.37567455 1651.92271098 526.36993348 1650.27333653 526.36419249 1648.62396209 C526.36134652 1647.80636341 526.35850055 1646.98876474 526.35556835 1646.14639035 C526.34115949 1642.00694716 526.32675193 1637.86750397 526.31234584 1633.72806076 C526.30948691 1632.90671706 526.30662798 1632.08537337 526.30368242 1631.23914046 C526.21137278 1604.71423363 526.1217063 1578.1893188 526.03364091 1551.66439756 C525.93967205 1523.36452937 525.84320082 1495.06467071 525.74406079 1466.76482014 C525.73308081 1463.62800446 525.72211061 1460.49118875 525.71114764 1457.35437302 C525.70709932 1456.1965108 525.70709932 1456.1965108 525.70296922 1455.01525742 C525.66572575 1444.34944922 525.62990569 1433.68363713 525.59526911 1423.01782015 C525.53706774 1405.098791 525.47593702 1387.17977451 525.40902552 1369.26077561 C525.40650015 1368.5829288 525.40397477 1367.90508199 525.40137286 1367.20669438 C525.2887561 1337.08479886 525.1391349 1306.96364051 524.85577235 1276.84280686 C524.84551052 1275.75185904 524.8352487 1274.66091122 524.82467591 1273.53690438 C524.61870767 1251.9653387 524.35887757 1230.39441896 524.11190638 1208.82327561 C584.83190638 1208.82327561 645.55190638 1208.82327561 708.11190638 1208.82327561 C708.11190638 1328.94327561 708.11190638 1449.06327561 708.11190638 1572.82327561 C828.56190638 1572.82327561 949.01190638 1572.82327561 1073.11190638 1572.82327561 C1073.11190638 1453.03327561 1073.11190638 1333.24327561 1073.11190638 1209.82327561 C1133.50190638 1209.82327561 1193.89190638 1209.82327561 1256.11190638 1209.82327561 C1255.95343226 1226.15400559 1255.79495814 1242.48473557 1255.63168177 1259.31033615 C1255.53482834 1270.15589161 1255.43905179 1281.00139782 1255.35461268 1291.8470488 C1255.34926598 1292.53214972 1255.34391928 1293.21725064 1255.33841056 1293.92311219 C1255.07450058 1327.89058956 1254.96836159 1361.8580723 1254.90658412 1395.82644944 C1254.90455182 1396.93795498 1254.90455182 1396.93795498 1254.90247846 1398.07191519 C1254.86857852 1416.717717 1254.84176554 1435.36352693 1254.81790727 1454.00934401 C1254.8021308 1466.33902968 1254.78435274 1478.66871087 1254.76484713 1490.99839119 C1254.76352953 1491.83186115 1254.76221192 1492.66533111 1254.76085439 1493.52405773 C1254.75414722 1497.76121687 1254.74740994 1501.99837596 1254.74066113 1506.23553503 C1254.69359364 1535.81970911 1254.65022257 1565.40388747 1254.60922084 1594.98807053 C1254.56951696 1623.62934971 1254.52800306 1652.2706254 1254.48422084 1680.91189865 C1254.48144351 1682.73035183 1254.47866623 1684.548805 1254.475889 1686.36725817 C1254.45329353 1701.15607715 1254.43057804 1715.94489595 1254.40783365 1730.7337147 C1254.30380554 1798.43022785 1254.2085012 1866.12675061 1254.11190638 1933.82327561 C1433.63190638 1933.82327561 1613.15190638 1933.82327561 1798.11190638 1933.82327561 C1798.7013711 1917.90772815 1799.26038276 1902.08235021 1799.3419765 1886.17024521 C1799.35881513 1882.91575805 1799.38105126 1879.66134047 1799.40440211 1876.40689377 C1799.43801579 1871.67891642 1799.46989569 1866.95093266 1799.50033412 1862.22293381 C1799.58424186 1849.37085058 1799.68586503 1836.51891336 1799.79550013 1823.66702561 C1799.80112704 1823.00642577 1799.80675394 1822.34582592 1799.81255135 1821.6652079 C1800.05200809 1793.73671793 1800.51816541 1765.81389992 1801.04486689 1737.88947586 C1801.76509119 1699.57677297 1802.35444121 1661.26653278 1802.67440638 1622.94827561 C1802.68386287 1621.82038243 1802.69331935 1620.69248925 1802.70306239 1619.53041748 C1802.9756616 1586.70087476 1803.16139125 1553.8708215 1803.34208403 1521.04067234 C1803.36333632 1517.18793214 1803.38478235 1513.33519303 1803.40622166 1509.48245386 C1803.43315999 1504.63691466 1803.45994148 1499.79137461 1803.48666224 1494.9458342 C1803.4919751 1493.98293913 1803.49728796 1493.02004406 1803.50276182 1492.02797036 C1803.56554583 1480.6184955 1803.62524948 1469.2090125 1803.67982021 1457.79949532 C1803.71456225 1450.55283536 1803.75169331 1443.30618987 1803.7903581 1436.05954979 C1803.81257595 1431.87114121 1803.83371615 1427.68273607 1803.85139117 1423.49430565 C1803.93348542 1404.21892096 1804.16261522 1384.95048579 1804.51788936 1365.67812399 C1804.95078641 1342.19326357 1805.27067645 1318.71021773 1805.48495326 1295.22244553 C1805.49205113 1294.44479142 1805.499149 1293.66713732 1805.50646195 1292.86591793 C1805.5958674 1283.02624827 1805.68089137 1273.18654255 1805.76431278 1263.34682053 C1805.81675704 1257.16513405 1805.87025853 1250.98345742 1805.92439113 1244.80178551 C1805.93624393 1243.44808425 1805.93624393 1243.44808425 1805.94833619 1242.06703548 C1805.96443786 1240.22851395 1805.98054161 1238.38999245 1805.99664739 1236.55147095 C1806.14640933 1219.44270194 1806.29317126 1202.33390824 1806.43883136 1185.22510387 C1806.56010575 1170.98851972 1806.68389199 1156.75195942 1806.80966029 1142.51541428 C1807.69450136 1042.93945923 1807.69450136 1042.93945923 1808.35800013 943.36184983 C1808.3626565 942.51469733 1808.36731287 941.66754484 1808.37211034 940.79472106 C1808.43355414 929.58901441 1808.49331867 918.38329889 1808.55287204 907.17758207 C1809.09599147 805.00618569 1809.97871666 702.83796714 1810.87514797 600.66914322 C1811.0466648 581.11539796 1811.21545406 561.56163059 1811.3824142 542.00784592 C1811.58040688 518.81973885 1811.78009138 495.63164731 1811.9823564 472.44357709 C1812.00398623 469.96338516 1812.02561398 467.48319322 1812.04723964 465.00300125 C1812.05786038 463.78503577 1812.06848112 462.56707029 1812.0794237 461.31219676 C1812.15253168 452.91567729 1812.22449611 444.51914852 1812.2959579 436.1226149 C1812.38284437 425.91726777 1812.47161779 415.71193894 1812.56259737 405.50662745 C1812.61603201 399.50726021 1812.66812947 393.50788609 1812.71744213 387.50848345 C1812.98717393 355.94059562 1813.55809938 324.39027476 1814.11190638 292.82327561 C1814.44190638 230.12327561 1814.77190638 167.42327561 1815.11190638 102.82327561 C1631.96190638 102.82327561 1448.81190638 102.82327561 1260.11190638 102.82327561 C1259.27452266 151.55873395 1259.27452266 151.55873395 1258.99584076 200.29071621 C1259.00041993 204.02514044 1258.99868081 207.75956467 1258.99793849 211.49399094 C1258.99742947 217.87277959 1259.00039847 224.25155753 1259.00617633 230.63034348 C1259.01452304 239.85147983 1259.01692934 249.07261133 1259.01816432 258.29375104 C1259.02031988 273.27690275 1259.02688169 288.26004882 1259.03646693 303.24319748 C1259.04573391 317.7444993 1259.05275691 332.24579954 1259.05697474 346.74710373 C1259.05724274 347.65934283 1259.05751074 348.57158193 1259.05778686 349.51146464 C1259.0598679 356.65229831 1259.06182425 363.79313201 1259.06374142 370.93396572 C1259.07307031 405.56374087 1259.09321229 440.1935018 1259.11190638 474.82327561 C1198.39190638 474.82327561 1137.67190638 474.82327561 1075.11190638 474.82327561 C1074.68922481 510.48918744 1074.68922481 510.48918744 1074.33895717 546.15579514 C1074.32843452 547.38774432 1074.31791187 548.6196935 1074.30707035 549.88897447 C1074.04094921 581.87590168 1074.01352966 613.86276302 1074.01425013 645.85061936 C1074.0142224 647.82577463 1074.0142224 647.82577463 1074.01419411 649.84083204 C1074.01470062 672.14748903 1074.03366028 694.45412201 1074.04940638 716.76077561 C1074.07003138 758.36140061 1074.09065638 799.96202561 1074.11190638 842.82327561 C953.00190638 842.82327561 831.89190638 842.82327561 707.11190638 842.82327561 C707.13253138 808.83327561 707.15315638 774.84327561 707.17440638 739.82327561 C707.18364171 709.04202282 707.18364171 709.04202282 707.17831263 678.26077561 C707.17783781 677.03184964 707.17736299 675.80292366 707.17687378 674.53675751 C707.16270298 640.31925765 707.09721928 606.10268246 706.88925013 571.88577561 C706.88434605 571.07209896 706.87944196 570.25842232 706.87438927 569.42008881 C706.68277589 537.88734295 706.38373505 506.35540143 706.11190638 474.82327561 C645.39190638 474.82327561 584.67190638 474.82327561 522.11190638 474.82327561 C522.13253138 450.52702561 522.15315638 426.23077561 522.17440638 401.19827561 C522.17924597 386.0446127 522.1836515 370.89099261 522.17440638 355.73733811 C522.17360009 354.34778121 522.17360009 354.34778121 522.17277751 352.93015246 C522.1487218 313.54161405 521.97532095 274.154986 521.69015107 234.76752095 C521.66948856 231.88790691 521.6495382 229.00828814 521.62960867 226.12866895 C521.60999666 223.30814181 521.58992737 220.48761805 521.56973979 217.66709499 C521.55655731 215.81560072 521.54372332 213.96410397 521.53091941 212.11260704 C521.26424637 175.67779672 520.67241449 139.25630272 520.11190638 102.82327561 C337.29190638 102.82327561 154.47190638 102.82327561 -33.88809362 102.82327561 Z " fill="#000000" transform="translate(133.8880936158821,4.176724392455071)"/>
<path d="M0 0 C3.46679688 0.04882812 3.46679688 0.04882812 6.93359375 0.09765625 C6.93359375 3.72765625 6.93359375 7.35765625 6.93359375 11.09765625 C10.30273438 11.04882812 10.30273438 11.04882812 13.671875 11 C15.93359375 11.09765625 15.93359375 11.09765625 18.93359375 12.09765625 C18.93359375 15.72765625 18.93359375 19.35765625 18.93359375 23.09765625 C22.89359375 23.42765625 26.85359375 23.75765625 30.93359375 24.09765625 C30.93359375 27.72765625 30.93359375 31.35765625 30.93359375 35.09765625 C34.56359375 35.09765625 38.19359375 35.09765625 41.93359375 35.09765625 C41.93359375 38.72765625 41.93359375 42.35765625 41.93359375 46.09765625 C45.89359375 46.42765625 49.85359375 46.75765625 53.93359375 47.09765625 C53.93359375 50.72765625 53.93359375 54.35765625 53.93359375 58.09765625 C57.56359375 58.09765625 61.19359375 58.09765625 64.93359375 58.09765625 C64.93359375 61.72765625 64.93359375 65.35765625 64.93359375 69.09765625 C68.89359375 69.42765625 72.85359375 69.75765625 76.93359375 70.09765625 C76.93359375 73.72765625 76.93359375 77.35765625 76.93359375 81.09765625 C80.56359375 81.09765625 84.19359375 81.09765625 87.93359375 81.09765625 C88.42859375 86.54265625 88.42859375 86.54265625 88.93359375 92.09765625 C94.37859375 92.59265625 94.37859375 92.59265625 99.93359375 93.09765625 C99.93359375 96.72765625 99.93359375 100.35765625 99.93359375 104.09765625 C103.89359375 104.09765625 107.85359375 104.09765625 111.93359375 104.09765625 C111.93359375 108.05765625 111.93359375 112.01765625 111.93359375 116.09765625 C115.56359375 116.09765625 119.19359375 116.09765625 122.93359375 116.09765625 C122.93359375 119.72765625 122.93359375 123.35765625 122.93359375 127.09765625 C126.89359375 127.09765625 130.85359375 127.09765625 134.93359375 127.09765625 C135.26359375 130.72765625 135.59359375 134.35765625 135.93359375 138.09765625 C139.23359375 138.42765625 142.53359375 138.75765625 145.93359375 139.09765625 C145.93359375 142.72765625 145.93359375 146.35765625 145.93359375 150.09765625 C149.89359375 150.09765625 153.85359375 150.09765625 157.93359375 150.09765625 C158.26359375 153.72765625 158.59359375 157.35765625 158.93359375 161.09765625 C162.23359375 161.42765625 165.53359375 161.75765625 168.93359375 162.09765625 C168.93359375 165.72765625 168.93359375 169.35765625 168.93359375 173.09765625 C172.89359375 173.09765625 176.85359375 173.09765625 180.93359375 173.09765625 C180.93359375 177.05765625 180.93359375 181.01765625 180.93359375 185.09765625 C184.56359375 185.09765625 188.19359375 185.09765625 191.93359375 185.09765625 C191.93359375 188.39765625 191.93359375 191.69765625 191.93359375 195.09765625 C195.89359375 195.09765625 199.85359375 195.09765625 203.93359375 195.09765625 C203.93359375 199.05765625 203.93359375 203.01765625 203.93359375 207.09765625 C207.56359375 207.09765625 211.19359375 207.09765625 214.93359375 207.09765625 C215.92359375 212.54265625 215.92359375 212.54265625 216.93359375 218.09765625 C220.23359375 218.42765625 223.53359375 218.75765625 226.93359375 219.09765625 C226.93359375 222.72765625 226.93359375 226.35765625 226.93359375 230.09765625 C230.89359375 230.09765625 234.85359375 230.09765625 238.93359375 230.09765625 C239.26359375 233.72765625 239.59359375 237.35765625 239.93359375 241.09765625 C243.23359375 241.42765625 246.53359375 241.75765625 249.93359375 242.09765625 C250.26359375 245.39765625 250.59359375 248.69765625 250.93359375 252.09765625 C254.56359375 252.42765625 258.19359375 252.75765625 261.93359375 253.09765625 C261.93359375 256.72765625 261.93359375 260.35765625 261.93359375 264.09765625 C265.56359375 264.09765625 269.19359375 264.09765625 272.93359375 264.09765625 C272.93359375 268.05765625 272.93359375 272.01765625 272.93359375 276.09765625 C276.89359375 276.09765625 280.85359375 276.09765625 284.93359375 276.09765625 C284.93359375 279.72765625 284.93359375 283.35765625 284.93359375 287.09765625 C288.56359375 287.09765625 292.19359375 287.09765625 295.93359375 287.09765625 C295.93359375 291.05765625 295.93359375 295.01765625 295.93359375 299.09765625 C299.89359375 299.09765625 303.85359375 299.09765625 307.93359375 299.09765625 C307.93359375 302.72765625 307.93359375 306.35765625 307.93359375 310.09765625 C311.56359375 310.09765625 315.19359375 310.09765625 318.93359375 310.09765625 C318.93359375 314.05765625 318.93359375 318.01765625 318.93359375 322.09765625 C322.89359375 322.09765625 326.85359375 322.09765625 330.93359375 322.09765625 C330.93359375 325.72765625 330.93359375 329.35765625 330.93359375 333.09765625 C334.56359375 333.09765625 338.19359375 333.09765625 341.93359375 333.09765625 C341.93359375 337.05765625 341.93359375 341.01765625 341.93359375 345.09765625 C345.89359375 345.09765625 349.85359375 345.09765625 353.93359375 345.09765625 C353.93359375 348.72765625 353.93359375 352.35765625 353.93359375 356.09765625 C357.56359375 356.09765625 361.19359375 356.09765625 364.93359375 356.09765625 C364.93359375 359.72765625 364.93359375 363.35765625 364.93359375 367.09765625 C368.89359375 367.09765625 372.85359375 367.09765625 376.93359375 367.09765625 C376.93359375 371.05765625 376.93359375 375.01765625 376.93359375 379.09765625 C380.56359375 379.09765625 384.19359375 379.09765625 387.93359375 379.09765625 C387.93359375 382.72765625 387.93359375 386.35765625 387.93359375 390.09765625 C391.89359375 390.09765625 395.85359375 390.09765625 399.93359375 390.09765625 C399.93359375 394.05765625 399.93359375 398.01765625 399.93359375 402.09765625 C403.56359375 402.09765625 407.19359375 402.09765625 410.93359375 402.09765625 C411.26359375 405.39765625 411.59359375 408.69765625 411.93359375 412.09765625 C415.56359375 412.42765625 419.19359375 412.75765625 422.93359375 413.09765625 C422.93359375 417.05765625 422.93359375 421.01765625 422.93359375 425.09765625 C426.56359375 425.09765625 430.19359375 425.09765625 433.93359375 425.09765625 C433.93359375 428.72765625 433.93359375 432.35765625 433.93359375 436.09765625 C437.89359375 436.09765625 441.85359375 436.09765625 445.93359375 436.09765625 C445.93359375 439.72765625 445.93359375 443.35765625 445.93359375 447.09765625 C449.56359375 447.09765625 453.19359375 447.09765625 456.93359375 447.09765625 C456.93359375 451.05765625 456.93359375 455.01765625 456.93359375 459.09765625 C460.89359375 459.09765625 464.85359375 459.09765625 468.93359375 459.09765625 C468.93359375 462.72765625 468.93359375 466.35765625 468.93359375 470.09765625 C472.56359375 470.09765625 476.19359375 470.09765625 479.93359375 470.09765625 C479.93359375 474.05765625 479.93359375 478.01765625 479.93359375 482.09765625 C483.89359375 482.09765625 487.85359375 482.09765625 491.93359375 482.09765625 C491.93359375 485.72765625 491.93359375 489.35765625 491.93359375 493.09765625 C495.56359375 493.09765625 499.19359375 493.09765625 502.93359375 493.09765625 C502.93359375 497.05765625 502.93359375 501.01765625 502.93359375 505.09765625 C506.89359375 505.09765625 510.85359375 505.09765625 514.93359375 505.09765625 C514.93359375 508.72765625 514.93359375 512.35765625 514.93359375 516.09765625 C518.56359375 516.09765625 522.19359375 516.09765625 525.93359375 516.09765625 C525.93359375 519.72765625 525.93359375 523.35765625 525.93359375 527.09765625 C529.89359375 527.09765625 533.85359375 527.09765625 537.93359375 527.09765625 C537.93359375 531.05765625 537.93359375 535.01765625 537.93359375 539.09765625 C541.89359375 539.09765625 545.85359375 539.09765625 549.93359375 539.09765625 C550.26359375 542.72765625 550.59359375 546.35765625 550.93359375 550.09765625 C550.27359375 550.09765625 549.61359375 550.09765625 548.93359375 550.09765625 C548.94493345 551.03228699 548.95627315 551.96691772 548.96795648 552.92987061 C549.60150659 605.46406458 550.03497912 657.99747485 550.23071289 710.53515625 C550.2332565 711.21633932 550.23580011 711.8975224 550.2384208 712.59934738 C550.30538116 730.57566281 550.36584115 748.55199853 550.42421821 766.52834362 C550.45901696 777.22848534 550.49542336 787.92862077 550.53283501 798.62875366 C550.53553896 799.40243126 550.53824291 800.17610886 550.54102881 800.97323123 C550.55202096 804.1172034 550.56302258 807.26117554 550.57403654 810.40514763 C550.67329464 838.73932763 550.76945302 867.07351719 550.86352539 895.40771484 C550.95161482 921.93929777 551.04168234 948.47087297 551.1340332 975.00244141 C551.13831808 976.23365727 551.13831808 976.23365727 551.14268952 977.48974618 C551.15708457 981.62594504 551.17148222 985.76214388 551.18587985 989.89834273 C551.18872301 990.71517628 551.19156617 991.53200983 551.19449548 992.37359591 C551.2002311 994.0213795 551.20596731 995.66916309 551.21170412 997.31694667 C551.30366777 1023.7355777 551.3940049 1050.15421431 551.48402654 1076.57285202 C551.51012629 1084.23071766 551.53630236 1091.88858302 551.56266713 1099.54644775 C551.61786715 1115.58345574 551.67254172 1131.62046515 551.72544653 1147.6574809 C551.74725261 1154.2636683 551.76933795 1160.86985447 551.79230118 1167.47603798 C551.91668304 1203.35009047 551.95588235 1239.22342545 551.93359375 1275.09765625 C521.70236197 1275.11585401 521.70236197 1275.11585401 507.46937561 1275.1231842 C506.7012063 1275.12357994 505.93303699 1275.12397567 505.14158983 1275.1243834 C471.53541331 1275.14155379 437.92923424 1275.15188998 404.32305431 1275.159513 C401.50510088 1275.1601542 398.68714746 1275.16081308 395.86919403 1275.16147232 C307.46901447 1275.18182284 219.06958118 1275.17594559 94.93359375 1274.59765625 C93.77644568 1274.59168253 92.61929761 1274.58570882 91.42708445 1274.57955408 C63.26249756 1274.43387494 35.09799604 1274.27553577 6.93359375 1274.09765625 C6.2642121 1243.16659541 5.83463802 1212.24095869 5.66992188 1181.3034668 C5.66342497 1180.08863084 5.66342497 1180.08863084 5.65679681 1178.84925275 C5.6068464 1169.44002743 5.5610582 1160.03078385 5.51673889 1150.62153053 C5.43189311 1132.62794507 5.33198307 1114.63443717 5.23138082 1096.64093392 C5.22034104 1094.66504908 5.20933422 1092.68916405 5.19836009 1090.71327884 C4.94901543 1045.8264126 4.60018277 1000.94057258 4.21484375 956.0546875 C4.20695092 955.13461353 4.19905808 954.21453957 4.19092607 953.26658458 C3.99990615 931.01160276 3.80437554 908.75666178 3.60666072 886.50173853 C3.48061841 872.30855261 3.35733196 858.11534471 3.23583984 843.92211914 C3.09057973 826.95230825 2.94362085 809.98251337 2.79411077 793.01273936 C2.77809804 791.19477413 2.76208726 789.37680888 2.74607849 787.55884361 C2.73429354 786.22070042 2.73429354 786.22070042 2.72227052 784.85552404 C2.66871128 778.76183768 2.61627938 772.66814232 2.56434631 766.57444191 C2.4813604 756.85534668 2.39587459 747.1362763 2.30664062 737.41723633 C2.29958304 736.64802589 2.29252545 735.87881546 2.285254 735.08629562 C2.07853657 712.70762113 1.76088143 690.33352901 1.33957672 667.95770991 C0.95400471 647.45924756 0.74559096 626.96522662 0.66320229 606.46349716 C0.64411034 601.97410281 0.62007863 597.48473428 0.59655762 592.99536133 C0.53319346 580.75001629 0.47675573 568.50464179 0.42057037 556.25926208 C0.36873283 544.97821146 0.31514908 533.69717481 0.25604486 522.41615963 C0.23318929 518.02269572 0.21161023 513.62923642 0.19395447 509.23574829 C0.11010575 488.46946434 -0.14468524 467.71201465 -0.53686523 446.94921875 C-0.9627298 424.28442884 -1.24794866 401.62081322 -1.45532227 378.953125 C-1.46656455 377.7250338 -1.46656455 377.7250338 -1.47803394 376.47213268 C-1.57236455 366.12394139 -1.66229017 355.77571359 -1.75057432 345.42746913 C-1.80540569 339.00448414 -1.86128899 332.58150899 -1.91782951 326.15853882 C-1.92602011 325.22799468 -1.9342107 324.29745055 -1.94264949 323.3387081 C-1.95931675 321.44559421 -1.97598622 319.55248034 -1.99265789 317.65936649 C-2.14717936 300.10011498 -2.29867932 282.54083846 -2.44905775 264.98155105 C-2.57685361 250.06743185 -2.7072682 235.15333743 -2.83959961 220.23925781 C-2.99502057 202.72279797 -3.14875857 185.20632458 -3.29997772 167.68982792 C-3.31624943 165.80547649 -3.3325231 163.92112508 -3.34879875 162.03677368 C-3.35679609 161.11075464 -3.36479344 160.1847356 -3.37303312 159.23065537 C-3.42824312 152.85024439 -3.48458059 146.469844 -3.54138374 140.08944702 C-4.11846558 75.13248749 -4.11846558 75.13248749 -4.16236675 43.23950768 C-4.16587086 40.82447729 -4.17087126 38.4094485 -4.17755234 35.99442482 C-4.24274305 9.74827387 -4.24274305 9.74827387 -3.06640625 1.09765625 C-2.06640625 0.09765625 -2.06640625 0.09765625 0 0 Z " fill="#C33DF5" transform="translate(109.06640625,662.90234375)"/>
<path d="M0 0 C183.15 0 366.3 0 555 0 C554 190 554 190 553 247 C552.84686112 260.40475921 552.69493537 273.80880433 552.58475113 287.21387482 C552.53273163 293.46723102 552.47710411 299.72055305 552.4213562 305.97387695 C552.33014031 316.25708982 552.2415766 326.54032374 552.15405726 336.82356867 C552.08206881 345.27562911 552.00903566 353.72767999 551.93533325 362.17972565 C551.92465602 363.40427055 551.91397879 364.62881545 551.902978 365.89046778 C551.88123949 368.38312284 551.85949874 370.87577788 551.8377558 373.36843291 C551.63501456 396.62434786 551.43533757 419.88028832 551.23676646 443.1362392 C551.07003683 462.6549747 550.90074986 482.17368654 550.72949219 501.69238281 C549.77955202 609.9977938 548.86224123 718.30266128 548.30310059 826.61090088 C548.2946217 828.25048148 548.28614067 829.89006207 548.27765745 831.52964264 C548.27350424 832.33241086 548.26935103 833.13517907 548.26507196 833.96227359 C548.24858391 837.14725435 548.23206664 840.33223495 548.21552901 843.51721545 C548.20745973 845.07260526 548.19940861 846.62799517 548.19137616 848.18338518 C547.93487849 897.78998404 547.48392786 947.39514835 547 997 C546.34 997 545.68 997 545 997 C545 1014.49 545 1031.98 545 1050 C541.7 1050 538.4 1050 535 1050 C534.67 1046.7 534.34 1043.4 534 1040 C531.42838542 1039.77213542 528.85677083 1039.54427083 526.28515625 1039.31640625 C524 1039 524 1039 523 1038 C522.85689713 1034.3308423 522.95778338 1030.67284559 523 1027 C519.37 1027 515.74 1027 512 1027 C511.67 1023.7 511.34 1020.4 511 1017 C507.7 1016.67 504.4 1016.34 501 1016 C501 1012.04 501 1008.08 501 1004 C497.04 1004 493.08 1004 489 1004 C489 1000.37 489 996.74 489 993 C485.37 993 481.74 993 478 993 C478 989.04 478 985.08 478 981 C474.04 981 470.08 981 466 981 C466 977.7 466 974.4 466 971 C463.42838542 970.77213542 460.85677083 970.54427083 458.28515625 970.31640625 C456 970 456 970 455 969 C454.85689713 965.3308423 454.95778338 961.67284559 455 958 C451.37 958 447.74 958 444 958 C444 954.37 444 950.74 444 947 C440.04 947 436.08 947 432 947 C432 943.37 432 939.74 432 936 C428.37 936 424.74 936 421 936 C421 932.04 421 928.08 421 924 C417.37 924 413.74 924 410 924 C410 920.37 410 916.74 410 913 C407.3084375 913.0309375 407.3084375 913.0309375 404.5625 913.0625 C402.70833878 913.0838122 400.85287502 913.07226502 399 913 C398 912 398 912 397.90234375 909.49609375 C397.93489583 906.6640625 397.96744792 903.83203125 398 901 C394.37 901 390.74 901 387 901 C387 897.37 387 893.74 387 890 C383.04 890 379.08 890 375 890 C375 886.04 375 882.08 375 878 C371.37 878 367.74 878 364 878 C364 874.37 364 870.74 364 867 C360.37 867 356.74 867 353 867 C353 863.04 353 859.08 353 855 C349.04 855 345.08 855 341 855 C341 851.37 341 847.74 341 844 C337.37 844 333.74 844 330 844 C329.67 840.04 329.34 836.08 329 832 C325.37 832 321.74 832 318 832 C318.33 828.37 318.66 824.74 319 821 C315.04 821 311.08 821 307 821 C307 817.37 307 813.74 307 810 C303.37 810 299.74 810 296 810 C296 806.04 296 802.08 296 798 C292.04 798 288.08 798 284 798 C283.67 794.37 283.34 790.74 283 787 C279.7 786.67 276.4 786.34 273 786 C273 782.37 273 778.74 273 775 C269.04 775 265.08 775 261 775 C261 771.37 261 767.74 261 764 C257.37 763.67 253.74 763.34 250 763 C250 759.37 250 755.74 250 752 C246.37 752 242.74 752 239 752 C239 748.37 239 744.74 239 741 C236.3084375 741.0309375 236.3084375 741.0309375 233.5625 741.0625 C231.70833878 741.0838122 229.85287502 741.07226502 228 741 C227 740 227 740 226.90234375 737.49609375 C226.93489583 734.6640625 226.96744792 731.83203125 227 729 C223.37 729 219.74 729 216 729 C216 725.37 216 721.74 216 718 C212.04 718 208.08 718 204 718 C204 714.04 204 710.08 204 706 C200.04 706 196.08 706 192 706 C192.33 702.37 192.66 698.74 193 695 C189.04 695 185.08 695 181 695 C181 691.04 181 687.08 181 683 C177.37 683 173.74 683 170 683 C170 679.37 170 675.74 170 672 C166.04 672 162.08 672 158 672 C158 668.04 158 664.08 158 660 C154.37 660 150.74 660 147 660 C147 656.37 147 652.74 147 649 C143.04 649 139.08 649 135 649 C135 645.37 135 641.74 135 638 C133.370625 638.020625 131.74125 638.04125 130.0625 638.0625 C128.37500659 638.08386068 126.68608966 638.07205511 125 638 C124 637 124 637 123.90234375 634.49609375 C123.93489583 631.6640625 123.96744792 628.83203125 124 626 C120.04 626 116.08 626 112 626 C112 622.37 112 618.74 112 615 C108.37 614.67 104.74 614.34 101 614 C101 610.37 101 606.74 101 603 C97.37 603 93.74 603 90 603 C89.67 599.37 89.34 595.74 89 592 C85.37 591.67 81.74 591.34 78 591 C78 587.37 78 583.74 78 580 C74.37 580 70.74 580 67 580 C67 576.04 67 572.08 67 568 C63.04 568 59.08 568 55 568 C55 564.37 55 560.74 55 557 C52.5559375 557.0309375 52.5559375 557.0309375 50.0625 557.0625 C48.37500659 557.08386068 46.68608966 557.07205511 45 557 C44 556 44 556 43.90234375 553.49609375 C43.93489583 550.6640625 43.96744792 547.83203125 44 545 C40.04 545 36.08 545 32 545 C32 541.37 32 537.74 32 534 C29.5559375 534.0309375 29.5559375 534.0309375 27.0625 534.0625 C25.37500659 534.08386068 23.68608966 534.07205511 22 534 C21 533 21 533 20.90234375 530.49609375 C20.93489583 527.6640625 20.96744792 524.83203125 21 522 C17.04 522 13.08 522 9 522 C9 518.37 9 514.74 9 511 C6.5559375 511.0309375 6.5559375 511.0309375 4.0625 511.0625 C2.37500659 511.08386068 0.68608966 511.07205511 -1 511 C-2 510 -2 510 -2.09765625 507.49609375 C-2.06510417 504.6640625 -2.03255208 501.83203125 -2 499 C-5.63 499 -9.26 499 -13 499 C-13 495.37 -13 491.74 -13 488 C-15.5390625 488.03255208 -18.078125 488.06510417 -20.6171875 488.09765625 C-23 488 -23 488 -25 487 C-25 483.37 -25 479.74 -25 476 C-28.63 476 -32.26 476 -36 476 C-36 472.37 -36 468.74 -36 465 C-38.5390625 465.03255208 -41.078125 465.06510417 -43.6171875 465.09765625 C-46 465 -46 465 -48 464 C-48 460.37 -48 456.74 -48 453 C-51.63 453 -55.26 453 -59 453 C-59 449.37 -59 445.74 -59 442 C-61.5390625 442.03255208 -64.078125 442.06510417 -66.6171875 442.09765625 C-69 442 -69 442 -71 441 C-71 437.37 -71 433.74 -71 430 C-74.63 430 -78.26 430 -82 430 C-82 426.04 -82 422.08 -82 418 C-85.96 418 -89.92 418 -94 418 C-94 414.37 -94 410.74 -94 407 C-97.63 407 -101.26 407 -105 407 C-105 403.04 -105 399.08 -105 395 C-108.96 395 -112.92 395 -117 395 C-117 391.37 -117 387.74 -117 384 C-120.63 384 -124.26 384 -128 384 C-128 380.37 -128 376.74 -128 373 C-156.215 373.495 -156.215 373.495 -185 374 C-185 373.34 -185 372.68 -185 372 C-124.28 372 -63.56 372 -1 372 C-1.01160156 350.50875 -1.02320313 329.0175 -1.03515625 306.875 C-1.04027532 293.13020825 -1.04513793 279.3854171 -1.04882812 265.640625 C-1.05078484 258.40169269 -1.05280499 251.16276039 -1.05493164 243.92382812 C-1.05519539 243.01703607 -1.05545914 242.11024402 -1.05573088 241.17597342 C-1.06003374 226.69788452 -1.06789066 212.21979976 -1.0771528 197.74171329 C-1.0866359 182.7890804 -1.0920859 167.83644962 -1.09408849 152.88381386 C-1.09543399 143.72029017 -1.09961622 134.55677817 -1.10791647 125.39325809 C-1.11336676 119.03676837 -1.11476491 112.68028433 -1.11350138 106.32379246 C-1.11288511 102.70277952 -1.11353963 99.08178631 -1.11920547 95.46077728 C-1.16120723 63.63094631 -0.49739359 31.83318997 0 0 Z " fill="#E4C2E6" transform="translate(1394,107)"/>
<path d="M0 0 C118.47 0 236.94 0 359 0 C358.60043432 107.24342958 358.60043432 107.24342958 358.421875 135.62890625 C358.41196675 137.21880902 358.41196675 137.21880902 358.40185833 138.84083104 C358.09327547 187.83749583 357.35547931 236.82381966 356.4375 285.8125 C356.42000309 286.74785174 356.40250617 287.68320349 356.38447905 288.64689922 C355.94535677 312.09838653 355.48575253 335.54943149 355 359 C351.7 359 348.4 359 345 359 C345 355.37 345 351.74 345 348 C341.04 348 337.08 348 333 348 C333 344.04 333 340.08 333 336 C329.04 336 325.08 336 321 336 C321 332.37 321 328.74 321 325 C317.37 325 313.74 325 310 325 C310 321.37 310 317.74 310 314 C307.4609375 314.03255208 304.921875 314.06510417 302.3828125 314.09765625 C300 314 300 314 298 313 C298 309.37 298 305.74 298 302 C294.37 302 290.74 302 287 302 C287 298.04 287 294.08 287 290 C283.04 290 279.08 290 275 290 C275 286.37 275 282.74 275 279 C271.37 279 267.74 279 264 279 C264 275.04 264 271.08 264 267 C260.37 267 256.74 267 253 267 C253 263.37 253 259.74 253 256 C250.4609375 256.03255208 247.921875 256.06510417 245.3828125 256.09765625 C243 256 243 256 241 255 C241 251.37 241 247.74 241 244 C237.37 244 233.74 244 230 244 C230 240.04 230 236.08 230 232 C226.04 232 222.08 232 218 232 C218 228.37 218 224.74 218 221 C214.37 221 210.74 221 207 221 C207 217.04 207 213.08 207 209 C203.04 209 199.08 209 195 209 C195 205.37 195 201.74 195 198 C191.37 198 187.74 198 184 198 C184 194.04 184 190.08 184 186 C180.04 186 176.08 186 172 186 C172 182.04 172 178.08 172 174 C168.37 174 164.74 174 161 174 C161 170.37 161 166.74 161 163 C157.04 163 153.08 163 149 163 C149 159.04 149 155.08 149 151 C145.37 151 141.74 151 138 151 C138 147.37 138 143.74 138 140 C134.04 140 130.08 140 126 140 C126.33 136.04 126.66 132.08 127 128 C123.04 128 119.08 128 115 128 C115 124.04 115 120.08 115 116 C111.37 116 107.74 116 104 116 C104 112.37 104 108.74 104 105 C100.04 105 96.08 105 92 105 C92 101.04 92 97.08 92 93 C88.37 93 84.74 93 81 93 C81 89.04 81 85.08 81 81 C77.04 81 73.08 81 69 81 C69 77.37 69 73.74 69 70 C65.37 70 61.74 70 58 70 C58 66.04 58 62.08 58 58 C54.04 58 50.08 58 46 58 C46 54.04 46 50.08 46 46 C42.37 46 38.74 46 35 46 C35 42.37 35 38.74 35 35 C31.04 35 27.08 35 23 35 C23 31.04 23 27.08 23 23 C19.37 23 15.74 23 12 23 C12 19.37 12 15.74 12 12 C8.04 12 4.08 12 0 12 C0 8.04 0 4.08 0 0 Z " fill="#FEFEFE" transform="translate(1590,108)"/>
<path d="M0 0 C1.33238119 -0.00346153 1.33238119 -0.00346153 2.69167918 -0.006993 C5.67723168 -0.01229969 8.66256981 -0.00330325 11.64811134 0.00558662 C13.80643598 0.0047147 15.96476041 0.00296395 18.12308371 0.00040829 C24.06117614 -0.00407172 29.99919667 0.00394748 35.93727994 0.01396441 C42.33805227 0.02258717 48.73882043 0.01967959 55.13959694 0.01815987 C66.2317738 0.01711027 77.32392679 0.02332495 88.41609764 0.03463554 C100.04997176 0.04646811 111.68383651 0.05416714 123.3177166 0.05634117 C124.04097718 0.05647865 124.76423776 0.05661613 125.50941533 0.05675778 C129.18246501 0.05743444 132.85551471 0.05803721 136.52856441 0.05861153 C162.54723039 0.06281276 188.56588414 0.07628861 214.58454323 0.09521675 C239.86188632 0.11358438 265.13922605 0.12775221 290.41657448 0.13623238 C291.58523652 0.13662695 291.58523652 0.13662695 292.7775079 0.1370295 C300.60160492 0.13966654 308.42570196 0.14221817 316.24979902 0.14470722 C332.18849852 0.1497797 348.12719781 0.1554222 364.06589699 0.16140938 C365.16515921 0.16182125 365.16515921 0.16182125 366.28662874 0.16224144 C415.22757289 0.1806439 464.16850984 0.21237602 513.10944557 0.24609566 C510.10194855 2.55784704 507.18511004 4.304747 503.75788307 5.94531441 C502.74210182 6.4319355 501.72632057 6.91855659 500.67975807 7.41992378 C499.09807838 8.16919136 499.09807838 8.16919136 497.48444557 8.93359566 C496.42225807 9.44470894 495.36007057 9.95582222 494.26569557 10.48242378 C486.36650707 14.24609566 486.36650707 14.24609566 484.10944557 14.24609566 C484.10944557 35.69609566 484.10944557 57.14609566 484.10944557 79.24609566 C483.77944557 79.24609566 483.44944557 79.24609566 483.10944557 79.24609566 C483.10944557 57.79609566 483.10944557 36.34609566 483.10944557 14.24609566 C301.60944557 14.24609566 120.10944557 14.24609566 -66.89055443 14.24609566 C-66.89055443 13.91609566 -66.89055443 13.58609566 -66.89055443 13.24609566 C-62.05737461 12.15808871 -57.22335679 11.07390555 -52.3886013 9.99292183 C-50.7516599 9.62640182 -49.11493264 9.25892375 -47.47844505 8.89038277 C-37.78489897 6.70814405 -28.09725645 4.66156773 -18.30852318 2.95044136 C-14.96774683 2.36014528 -14.96774683 2.36014528 -12.23259103 1.21745503 C-8.05629533 0.00361914 -4.32370671 -0.02764598 0 0 Z " fill="#585858" transform="translate(170.8905544281006,92.75390434265137)"/>
<path d="M0 0 C49.25401573 -0.06850117 98.50803479 -0.13218003 147.76208496 -0.16937256 C148.49152983 -0.16992479 149.2209747 -0.17047702 149.97252396 -0.17104598 C165.82686639 -0.18301873 181.68120932 -0.1940993 197.53555301 -0.20426132 C205.31097425 -0.20925049 213.08639536 -0.21443673 220.86181641 -0.21972656 C221.63554762 -0.2202496 222.40927883 -0.22077263 223.20645645 -0.22131152 C248.26707842 -0.23834462 273.32766422 -0.26838066 298.38826429 -0.30518888 C324.14997254 -0.34295798 349.91166079 -0.36755075 375.67339626 -0.37565996 C379.31543175 -0.37681251 382.95746716 -0.37811506 386.59950256 -0.37950897 C387.31627889 -0.37977866 388.03305523 -0.38004836 388.77155205 -0.38032622 C400.2909134 -0.38504566 411.81021274 -0.40357779 423.32954884 -0.42732814 C434.92174963 -0.45093202 446.51387406 -0.45953533 458.10609961 -0.45400551 C464.38242884 -0.45144613 470.65857668 -0.45534171 476.93487358 -0.4768219 C482.68815492 -0.49636776 488.44113384 -0.49721783 494.19442946 -0.48359558 C496.26873074 -0.48191335 498.34305133 -0.48691897 500.41731495 -0.49953273 C512.6248763 -0.56941271 523.29614638 0.37952612 535 4 C536.83851913 4.53262988 538.67705556 5.06520006 540.515625 5.59765625 C542.09474155 6.0827212 543.67289605 6.57093086 545.25 7.0625 C552.4559365 9.26871061 559.65576151 11.2982862 567 13 C567 13.33 567 13.66 567 14 C514.52934223 14.1540743 462.05866673 14.29735869 409.58784485 14.38108826 C408.81118835 14.38233077 408.03453186 14.38357328 407.23434032 14.38485345 C390.35526482 14.41178999 373.47618692 14.43672157 356.59710542 14.45958797 C348.31953785 14.47081394 340.04197093 14.48248293 331.7644043 14.49438477 C330.52883207 14.49615001 330.52883207 14.49615001 329.26829879 14.49795092 C302.57209576 14.5362991 275.87606424 14.60389778 249.17996511 14.68667499 C221.74490066 14.77158895 194.30993111 14.82697373 166.87473748 14.84523491 C162.99919722 14.84782828 159.1236573 14.85075901 155.24811745 14.85389519 C154.10398133 14.8548054 154.10398133 14.8548054 152.93673135 14.855734 C140.66124937 14.8663671 128.38606095 14.90810286 116.11069865 14.96148831 C103.76800223 15.01450216 91.42559666 15.03470483 79.0827904 15.0215124 C72.39566804 15.015272 65.70951079 15.02466769 59.02248764 15.07284927 C52.89963824 15.11664398 46.77822915 15.11886222 40.65531347 15.08809005 C38.4411061 15.08428693 36.22680891 15.09570923 34.01277836 15.12394864 C15.42367678 15.34724979 15.42367678 15.34724979 8.3575716 9.74485683 C5.2992074 6.71006081 2.65707035 3.38882657 0 0 Z " fill="#585858" transform="translate(1378,93)"/>
</svg>
